# AST/ASF file generated using VICON BodyLanguage
# -----------------------------------------------
:version 1.10
:name VICON
:units
  mass 1.0
  length 0.45
  angle deg
:documentation
   .ast/.asf automatically generated from VICON data using
   VICON BodyBuilder and BodyLanguage model FoxedUp or BRILLIANT.MOD
:root
   order TX TY TZ RX RY RZ
   axis XYZ
   position 0 0 0  
   orientation 0 0 0 
:bonedata
  begin
     id 1 
     name lhipjoint
     direction 0.440178 -0.822639 0.359871 
     length 2.53113 
     axis 0 0 0  XYZ
  end
  begin
     id 2 
     name lfemur
     direction 0.34202 -0.939693 0  
     length 7.88132  
     axis 0 0 20  XYZ
    dof rx ry rz
    limits (-160.0 20.0)
           (-70.0 70.0)
           (-60.0 70.0)
  end
  begin
     id 3 
     name ltibia
     direction 0.34202 -0.939693 0   
     length 8.43783   
     axis 0 0 20   XYZ
    dof rx
    limits (-10.0 170.0)
  end
  begin
     id 4 
     name lfoot
     direction 0.0886351 -0.243523 0.965837   
     length 2.63414   
     axis -90 7.62852e-016 20   XYZ
    dof rx rz
    limits (-45.0 90.0)
           (-70.0 20.0)
  end
  begin
     id 5 
     name ltoes
     direction 1.53703e-011 -4.21717e-011 1   
     length 1.31427   
     axis -90 7.62852e-016 20   XYZ
    dof rx
    limits (-90.0 20.0)
  end
  begin
     id 6 
     name rhipjoint
     direction -0.399779 -0.839773 0.367367   
     length 2.47948  
     axis 0 0 0  XYZ 
  end
  begin
     id 7 
     name rfemur
     direction -0.34202 -0.939693 0   
     length 7.74806   
     axis 0 0 -20   XYZ
    dof rx ry rz
    limits (-160.0 20.0)
           (-70.0 70.0)
           (-70.0 60.0)
  end
  begin
     id 8 
     name rtibia
     direction -0.34202 -0.939693 0   
     length 8.74432   
     axis 0 0 -20   XYZ
    dof rx
    limits (-10.0 170.0)
 end
 begin
     id 9 
     name rfoot
     direction -0.108514 -0.298139 0.948334   
     length 2.66102  
     axis -90 -7.62852e-016 -20   XYZ
    dof rx rz
    limits (-45.0 90.0)
           (-20.0 70.0)
  end
  begin
     id 10 
     name rtoes
     direction -1.53392e-011 -4.22077e-011 1   
     length 1.31983   
     axis -90 -7.62852e-016 -20   XYZ
    dof rx
    limits (-90.0 20.0)
  end
  begin
     id 11 
     name lowerback
     direction 0.0113257 0.999866 0.0118602   
     length 2.58694   
     axis 0 0 0   XYZ
    dof rx ry rz
    limits (-20.0 45.0)
           (-30.0 30.0)
           (-30.0 30.0)
  end
  begin
     id 12 
     name upperback
     direction -0.0164747 0.995193 -0.0965375   
     length 2.52368   
     axis 0 0 0   XYZ
    dof rx ry rz
    limits (-20.0 45.0)
           (-30.0 30.0)
           (-30.0 30.0)
  end
  begin
     id 13 
     name thorax
     direction -0.0194301 0.99433 -0.104552   
     length 2.56099   
     axis 0 0 0   XYZ
    dof rx ry rz
    limits (-20.0 45.0)
           (-30.0 30.0)
           (-30.0 30.0)
  end
  begin
     id 14 
     name lowerneck
     direction 0.0148543 0.995587 -0.092657   
     length 1.71582   
     axis 0 0 0   XYZ
    dof rx ry rz
    limits (-20.0 45.0)
           (-30.0 30.0)
           (-30.0 30.0)
  end
  begin
     id 15 
     name upperneck
     direction -0.0135467 0.993656 -0.111639   
     length 1.68937   
     axis 0 0 0   XYZ
    dof rx ry rz
    limits (-20.0 45.0)
           (-30.0 30.0)
           (-30.0 30.0)
  end
  begin
     id 16
     name head
     direction -0.00615349 0.999547 -0.029448  
     length 1.7462  
     axis 0 0 0   XYZ
    dof rx ry rz
    limits (-20.0 45.0)
           (-30.0 30.0)
           (-30.0 30.0)
  end
  begin
     id 17 
     name lclavicle
     direction 0.988267 0.149885 0.0293713  
     length 4.47222  
     axis 0 0 0   XYZ
    dof ry rz
    limits (-20.0 10.0)
           (0.0 20.0)
  end
  begin
     id 18 
     name lhumerus
     direction 1 -4.48986e-011 -1.14833e-027   
     length 5.37148   
     axis 180 -30 -90   XYZ
    dof rx ry rz
    limits (-60.0 90.0)
           (-90.0 90.0)
           (-90.0 90.0)
  end
  begin
     id 19
     name lradius
     direction 0.999998 0.00170963 -0.000987055   
     length 3.94212   
     axis 180 -30 -90   XYZ
    dof rx
    limits (-10.0 170.0)
  end
  begin
     id 20
     name lwrist
     direction 0.999998 7.53149e-005 -0.00194706   
     length 1.97106   
     axis 4.65056e-015 90 90   XYZ
    dof ry
    limits (-180.0 0.0)
 end
  begin
     id 21 
     name lhand
     direction 1 -4.48973e-011 -1.31746e-026   
     length 1.17917   
     axis 8.4065e-015 90 90   XYZ
    dof rx rz
    limits (-90.0 90.0)
           (-45.0 45.0)
  end
  begin
     id 22 
     name lfingers
     direction 1 -4.49107e-011 -2.63492e-026   
     length 0.950679   
     axis 1.6813e-014 90 90   XYZ
    dof rx
    limits (0.0 90.0)
  end
  begin
     id 23
     name lthumb
     direction 0.707107 -6.35048e-011 0.707107   
     length 1.36499   
     axis -90 45 2.85299e-015   XYZ
    dof rx rz
    limits (-45.0 45.0)
           (-45.0 45.0)
  end
  begin
     id 24 
     name rclavicle
     direction -0.996699 0.0642895 -0.0495725   
     length 4.62611  
     axis 0 0 0   XYZ 
    dof ry rz
    limits (-10.0 20.0)
           (-20.0 0.0)
  end
  begin
     id 25 
     name rhumerus
     direction -1 -4.48919e-011 -2.41059e-027  
     length 5.4981   
     axis 180 30 90   XYZ
    dof rx ry rz
    limits (-90.0 60.0)
           (-90.0 90.0)
           (-90.0 90.0)
  end
  begin
     id 26 
     name rradius
     direction -0.999999 0.00118101 -0.000681858   
     length 3.48381   
     axis 180 30 90   XYZ
    dof rx
    limits (-10.0 170.0)
  end
  begin
     id 27 
     name rwrist
     direction -0.999999 0.000321823 -0.00132288   
     length 1.7419   
     axis 4.65056e-015 -90 -90   XYZ
    dof ry
    limits (-180.0 0.0)
  end
  begin
     id 28
     name rhand
     direction -1 -4.49022e-011 -1.31746e-026   
     length 1.34932   
     axis 8.4065e-015 -90 -90   XYZ
    dof rx rz
    limits (-90.0 90.0)
           (-45.0 45.0)
  end
  begin
     id 29
     name rfingers
     direction -1 -4.49178e-011 -2.63492e-026   
     length 1.08785   
     axis 1.6813e-014 -90 -90   XYZ
    dof rx
    limits (0.0 90.0)
  end
  begin
     id 30
     name rthumb
     direction -0.707107 -6.34713e-011 0.707107   
     length 1.56195   
     axis -90 -45 -2.85299e-015   XYZ
    dof rx rz
    limits (-45.0 45.0)
           (-45.0 45.0)
  end
:hierarchy
  begin
    root lhipjoint rhipjoint lowerback
    lhipjoint lfemur
    lfemur ltibia
    ltibia lfoot
    lfoot ltoes
    rhipjoint rfemur
    rfemur rtibia
    rtibia rfoot
    rfoot rtoes
    lowerback upperback
    upperback thorax
    thorax lowerneck lclavicle rclavicle
    lowerneck upperneck
    upperneck head
    lclavicle lhumerus
    lhumerus lradius
    lradius lwrist
    lwrist lhand lthumb
    lhand lfingers
    rclavicle rhumerus
    rhumerus rradius
    rradius rwrist
    rwrist rhand rthumb
    rhand rfingers
  end

#!OML:ASF X:\für Bonn\!DataBase\2005_08_10_Bjorn_Final\c3d\bjorn.ASF
:FULLY-SPECIFIED
:DEGREES
1
root 4.46117 17.737 -14.7592 3.02718 -3.83414 363.192
lowerback 1.96985 0.537234 1.96495
upperback 10.5691 0.671606 -0.493814
thorax 10.1234 0.526798 -1.57766
lowerneck -3.11137 -1.39412 0.93588
upperneck -28.0126 -2.23647 -1.11622
head -8.19071 -1.0932 -0.403039
rclavicle -9.14409e-015 -3.97569e-015
rhumerus -42.1845 -24.34 -84.6746
rradius 58.9352
rwrist -12.4954
rhand -29.9522 32.5512
rfingers 7.12502
rthumb -3.27133 2.59653
lclavicle -9.14409e-015 -3.97569e-015
lhumerus -34.2773 9.0591 92.1213
lradius 45.8227
lwrist 8.07912
lhand -35.8652 -22.0293
lfingers 7.12502
lthumb -8.97969 7.75955
rfemur -22.315 1.29965 10.2914
rtibia 57.0118
rfoot -32.7155 7.90416
rtoes -33.7194
lfemur -29.5117 -11.0905 -16.012
ltibia 59.2695
lfoot -22.1811 -0.00335924
ltoes -32.9214
2
root 4.47514 17.6563 -14.5959 3.12663 -3.69813 363.235
lowerback 1.57951 0.560209 1.92238
upperback 10.4811 0.695565 -0.457564
thorax 10.2561 0.533524 -1.51057
lowerneck -3.20094 -1.446 0.900458
upperneck -28.4695 -2.32021 -1.12241
head -8.33608 -1.128 -0.39408
rclavicle 1.86858e-014 6.36111e-015
rhumerus -41.5166 -23.5587 -85.4438
rradius 60.0811
rwrist -13.372
rhand -29.9361 32.1745
rfingers 7.12502
rthumb -3.25576 2.21963
lclavicle 1.86858e-014 6.36111e-015
lhumerus -34.145 8.02492 92.4382
lradius 46.5749
lwrist 8.23901
lhand -35.9044 -23.7079
lfingers 7.12502
lthumb -9.0176 6.07935
rfemur -21.9409 1.72218 10.2565
rtibia 57.5094
rfoot -33.9201 7.19751
rtoes -34.5266
lfemur -29.0683 -10.9842 -16.4358
ltibia 59.6853
lfoot -23.6649 0.909925
ltoes -32.6519
3
root 4.48737 17.6153 -14.4318 3.24675 -3.57606 363.297
lowerback 1.146 0.589293 1.84196
upperback 10.3845 0.729821 -0.430953
thorax 10.405 0.542414 -1.43123
lowerneck -3.30252 -1.48641 0.8932
upperneck -28.8748 -2.38292 -1.11914
head -8.46225 -1.15641 -0.388196
rclavicle 3.97569e-015 -6.75868e-015
rhumerus -40.8612 -22.5696 -86.3348
rradius 62.0208
rwrist -13.2435
rhand -30.4319 30.8113
rfingers 7.12502
rthumb -3.73459 0.864258
lclavicle 3.97569e-015 -6.75868e-015
lhumerus -34.1663 6.94209 92.7255
lradius 48.0628
lwrist 7.50556
lhand -36.4278 -25.1092
lfingers 7.12502
lthumb -9.5226 4.65559
rfemur -21.3825 2.19684 10.2107
rtibia 57.5849
rfoot -34.635 6.67377
rtoes -35.0002
lfemur -28.5052 -10.8017 -16.8668
ltibia 59.7891
lfoot -24.7329 1.6795
ltoes -32.7158
4
root 4.49944 17.6161 -14.2661 3.42753 -3.42108 363.38
lowerback 0.614114 0.607869 1.76154
upperback 10.2542 0.751008 -0.424993
thorax 10.5751 0.545885 -1.37392
lowerneck -3.52286 -1.53055 0.761484
upperneck -29.0152 -2.41638 -0.970916
head -8.47059 -1.17182 -0.3149
rclavicle 1.72943e-014 1.98785e-015
rhumerus -40.2599 -21.4159 -87.2804
rradius 64.6241
rwrist -12.6064
rhand -30.3088 30.3396
rfingers 7.12502
rthumb -3.61564 0.390532
lclavicle 1.72943e-014 1.98785e-015
lhumerus -34.2906 5.75727 92.9737
lradius 50.4443
lwrist 6.3803
lhand -37.1059 -26.4139
lfingers 7.12502
lthumb -10.1768 3.31993
rfemur -20.7009 2.71167 10.1531
rtibia 57.2636
rfoot -34.9465 6.15283
rtoes -35.4389
lfemur -27.8863 -10.6484 -17.2571
ltibia 59.5769
lfoot -25.4048 2.00952
ltoes -32.1948
5
root 4.50953 17.655 -14.1008 3.64591 -3.22949 363.421
lowerback 0.0266401 0.621836 1.69706
upperback 10.0828 0.764173 -0.405656
thorax 10.7323 0.545601 -1.31131
lowerneck -3.8227 -1.58008 0.632843
upperneck -28.8986 -2.44829 -0.807338
head -8.37379 -1.18904 -0.23869
rclavicle -1.5704e-014 3.97569e-015
rhumerus -39.7586 -20.2078 -88.1887
rradius 67.5155
rwrist -11.5865
rhand -30.4827 30.9761
rfingers 7.12502
rthumb -3.78363 1.02991
lclavicle -1.5704e-014 3.97569e-015
lhumerus -34.4824 4.34549 93.2264
lradius 53.7225
lwrist 5.7938
lhand -36.7861 -26.4983
lfingers 7.12502
lthumb -9.86825 3.25046
rfemur -19.9098 3.14102 10.1417
rtibia 56.5661
rfoot -34.7915 5.90365
rtoes -35.5967
lfemur -27.1783 -10.4772 -17.5178
ltibia 59.011
lfoot -25.739 1.96851
ltoes -31.6865
6
root 4.51887 17.7285 -13.9351 3.85162 -3.05049 363.461
lowerback -0.556771 0.641316 1.63988
upperback 9.84372 0.787802 -0.413578
thorax 10.8118 0.551457 -1.28111
lowerneck -3.92807 -1.6293 0.617555
upperneck -28.7576 -2.49434 -0.728431
head -8.30495 -1.21615 -0.208411
rclavicle 3.97569e-016 0
rhumerus -39.5187 -19.0333 -89.0099
rradius 70.5933
rwrist -9.96868
rhand -30.7242 32.3589
rfingers 7.12502
rthumb -4.01681 2.41702
lclavicle 3.97569e-016 0
lhumerus -34.8715 2.86523 93.3744
lradius 57.4124
lwrist 5.15505
lhand -36.534 -26.9018
lfingers 7.12502
lthumb -9.62509 2.85833
rfemur -18.9769 3.35071 10.0908
rtibia 55.5188
rfoot -34.1744 5.9513
rtoes -35.5477
lfemur -26.3602 -10.1866 -17.6913
ltibia 58.0389
lfoot -25.6321 1.48471
ltoes -31.0153
7
root 4.52656 17.8498 -13.7651 4.07247 -2.84754 363.505
lowerback -1.1526 0.653121 1.57928
upperback 9.53504 0.802115 -0.422032
thorax 10.8196 0.55148 -1.25046
lowerneck -4.02327 -1.67157 0.68494
upperneck -28.4392 -2.55736 -0.786601
head -8.17886 -1.24835 -0.238543
rclavicle -1.98785e-016 -1.11319e-014
rhumerus -39.5331 -17.9724 -89.6657
rradius 73.9172
rwrist -7.62025
rhand -30.8004 32.9129
rfingers 7.12502
rthumb -4.09043 2.97244
lclavicle -1.98785e-016 -1.11319e-014
lhumerus -35.4491 1.41483 93.4545
lradius 61.371
lwrist 4.57863
lhand -36.451 -27.8509
lfingers 7.12502
lthumb -9.54492 1.91295
rfemur -17.8951 3.3418 10.0118
rtibia 54.0881
rfoot -33.1339 6.25649
rtoes -35.279
lfemur -25.3465 -9.86527 -17.8112
ltibia 56.6028
lfoot -25.0423 0.67274
ltoes -30.3573
8
root 4.53446 18.0094 -13.5933 4.3018 -2.65913 363.546
lowerback -1.72401 0.658858 1.522
upperback 9.12296 0.808993 -0.42803
thorax 10.6956 0.546443 -1.2204
lowerneck -4.00788 -1.71076 0.792169
upperneck -27.9092 -2.62499 -0.90536
head -8.00025 -1.28181 -0.295165
rclavicle 2.98177e-015 -1.19271e-015
rhumerus -39.8332 -16.8449 -90.1865
rradius 77.651
rwrist -5.05915
rhand -30.4767 31.6621
rfingers 7.12502
rthumb -3.7778 1.71587
lclavicle 2.98177e-015 -1.19271e-015
lhumerus -36.4258 0.00227204 93.4594
lradius 65.7504
lwrist 3.4999
lhand -36.7658 -28.3442
lfingers 7.12502
lthumb -9.84869 1.40544
rfemur -16.6753 3.25133 9.91852
rtibia 52.2977
rfoot -31.6934 6.79321
rtoes -34.7456
lfemur -24.0984 -9.52116 -17.9032
ltibia 54.7301
lfoot -24.0476 -0.255615
ltoes -29.8674
9
root 4.54075 18.1957 -13.417 4.57796 -2.46012 363.567
lowerback -2.35938 0.673603 1.49183
upperback 8.6382 0.826039 -0.438405
thorax 10.5307 0.548261 -1.20864
lowerneck -3.9746 -1.75389 0.86833
upperneck -27.1833 -2.68901 -1.00076
head -7.75813 -1.31268 -0.339033
rclavicle 1.37161e-014 5.1684e-015
rhumerus -40.2969 -15.6348 -90.6292
rradius 81.454
rwrist -2.91576
rhand -30.1967 30.3038
rfingers 7.12502
rthumb -3.50742 0.352945
lclavicle 1.37161e-014 5.1684e-015
lhumerus -37.2928 -1.3513 93.3914
lradius 69.5876
lwrist 1.7728
lhand -37.3999 -29.2718
lfingers 7.12502
lthumb -10.4604 0.448006
rfemur -15.3719 3.0734 9.82945
rtibia 50.1848
rfoot -29.7958 7.48359
rtoes -33.722
lfemur -22.7437 -9.15425 -17.934
ltibia 52.5019
lfoot -22.5669 -1.35821
ltoes -29.2179
10
root 4.54626 18.3983 -13.2363 4.87554 -2.25805 363.521
lowerback -3.02452 0.694949 1.53176
upperback 8.0608 0.84412 -0.426073
thorax 10.2827 0.553963 -1.21173
lowerneck -4.15237 -1.79938 0.829584
upperneck -25.914 -2.7348 -1.02655
head -7.29642 -1.33242 -0.3452
rclavicle 1.45113e-014 -1.03368e-014
rhumerus -41.0035 -14.3813 -90.9639
rradius 85.2504
rwrist -1.54871
rhand -29.8266 29.5233
rfingers 7.12502
rthumb -3.14996 -0.433221
lclavicle 1.45113e-014 -1.03368e-014
lhumerus -38.2848 -2.68103 93.3226
lradius 73.5156
lwrist 0.23199
lhand -37.6715 -29.6972
lfingers 7.12502
lthumb -10.7224 0.0091489
rfemur -14.002 2.84764 9.78661
rtibia 47.853
rfoot -27.398 8.29012
rtoes -32.4961
lfemur -21.2984 -8.711 -17.8507
ltibia 50.0076
lfoot -20.6937 -2.54275
ltoes -28.822
11
root 4.55179 18.6132 -13.0531 5.21764 -2.06297 363.516
lowerback -3.77523 0.692434 1.46657
upperback 7.41202 0.834181 -0.374382
thorax 10.0051 0.535104 -1.11692
lowerneck -4.3813 -1.8249 0.628104
upperneck -24.3002 -2.73769 -0.98772
head -6.71718 -1.32438 -0.30693
rclavicle -7.55382e-015 6.36111e-015
rhumerus -41.8272 -13.0434 -91.1882
rradius 88.8448
rwrist -0.851803
rhand -29.2638 29.5057
rfingers 7.12502
rthumb -2.60649 -0.458074
lclavicle -7.55382e-015 6.36111e-015
lhumerus -39.2904 -3.90536 93.2886
lradius 77.4822
lwrist -1.14304
lhand -37.8454 -29.5189
lfingers 7.12502
lthumb -10.8902 0.178703
rfemur -12.6233 2.59506 9.66777
rtibia 45.3513
rfoot -24.4662 9.07274
rtoes -31.7446
lfemur -19.8944 -8.06653 -17.7727
ltibia 47.3715
lfoot -18.4219 -3.91917
ltoes -28.8821
12
root 4.55712 18.8379 -12.873 5.57818 -1.87283 363.642
lowerback -4.55161 0.683049 1.26516
upperback 6.73366 0.83147 -0.364204
thorax 9.7116 0.512138 -0.989196
lowerneck -4.41036 -1.84093 0.20487
upperneck -22.6989 -2.67519 -0.651859
head -6.17941 -1.28713 -0.137577
rclavicle 2.08724e-014 -5.1684e-015
rhumerus -42.5936 -11.778 -91.3388
rradius 92.2264
rwrist -0.646771
rhand -28.3834 29.8345
rfingers 7.12502
rthumb -1.75617 -0.138028
lclavicle 2.08724e-014 -5.1684e-015
lhumerus -40.0954 -5.08211 93.2398
lradius 81.2089
lwrist -2.35327
lhand -38.0688 -28.7514
lfingers 7.12502
lthumb -11.1057 0.934776
rfemur -11.2937 2.20887 9.36941
rtibia 42.7441
rfoot -20.9774 9.77106
rtoes -31.5729
lfemur -18.5718 -7.2172 -17.8043
ltibia 44.6533
lfoot -15.7204 -5.47665
ltoes -29.3714
13
root 4.56158 19.09 -12.6895 5.95093 -1.69645 363.772
lowerback -5.35274 0.670424 1.06675
upperback 6.03775 0.826194 -0.359735
thorax 9.41673 0.489874 -0.869368
lowerneck -4.071 -1.83264 -0.2837
upperneck -21.3435 -2.5805 -0.248041
head -5.78868 -1.23233 0.0655925
rclavicle 1.45113e-014 -1.66979e-014
rhumerus -43.2934 -10.5737 -91.4276
rradius 95.4749
rwrist -0.565466
rhand -27.2383 29.8983
rfingers 7.12502
rthumb -0.650282 -0.080416
lclavicle 1.45113e-014 -1.66979e-014
lhumerus -40.6944 -6.21815 93.1984
lradius 84.6668
lwrist -3.25063
lhand -38.1903 -27.5725
lfingers 7.12502
lthumb -11.2228 2.10729
rfemur -10.057 1.75075 9.05744
rtibia 40.1081
rfoot -16.8965 10.3383
rtoes -31.1911
lfemur -17.3677 -6.2362 -17.8224
ltibia 41.9936
lfoot -12.562 -7.19927
ltoes -30.0268
14
root 4.56505 19.3662 -12.5047 6.28708 -1.55567 363.799
lowerback -6.13159 0.677923 0.959501
upperback 5.38712 0.837499 -0.318374
thorax 9.16228 0.482125 -0.759213
lowerneck -3.64905 -1.82379 -0.627345
upperneck -20.1121 -2.52682 -0.0380597
head -5.46131 -1.1973 0.18416
rclavicle -1.19271e-015 1.59028e-015
rhumerus -43.8677 -9.35088 -91.4208
rradius 98.706
rwrist -0.574438
rhand -25.9691 29.3022
rfingers 7.12502
rthumb 0.575589 -0.676725
lclavicle -1.19271e-015 1.59028e-015
lhumerus -41.0675 -7.38084 93.1421
lradius 87.9685
lwrist -4.1529
lhand -38.4187 -26.691
lfingers 7.12502
lthumb -11.4431 2.97674
rfemur -8.92503 1.29067 8.86797
rtibia 37.5365
rfoot -12.2921 10.6039
rtoes -30.0196
lfemur -16.2711 -5.16993 -17.6939
ltibia 39.4179
lfoot -8.6276 -9.12729
ltoes -29.9179
